<svg xmlns="http://www.w3.org/2000/svg" xmlns:xlink="http://www.w3.org/1999/xlink" width="150" zoomAndPan="magnify" viewBox="0 0 112.5 112.499997" height="150" preserveAspectRatio="xMidYMid meet" version="1.0"><defs><clipPath id="acd5e2f24d"><path d="M 6.496094 4.433594 L 105.804688 4.433594 L 105.804688 107.476562 L 6.496094 107.476562 Z M 6.496094 4.433594 " clip-rule="nonzero"/></clipPath></defs><path fill="#000000" d="M 28.515625 55.953125 C 28.515625 41.738281 39.390625 30 53.292969 28.570312 L 53.292969 18.121094 C 53.292969 15.394531 51.140625 13.070312 48.59375 13.046875 L 48.53125 13.046875 C 46.015625 13.046875 43.796875 14.421875 42.664062 16.546875 C 43.84375 17.566406 44.863281 18.78125 45.664062 20.164062 C 46.453125 21.527344 45.988281 23.265625 44.621094 24.054688 C 43.25 24.839844 41.503906 24.375 40.714844 23.015625 C 39.183594 20.378906 36.335938 18.738281 33.28125 18.738281 C 28.550781 18.738281 24.703125 22.570312 24.703125 27.28125 C 24.703125 29.394531 25.503906 31.441406 26.964844 33.050781 C 28.535156 34.777344 27.472656 37.546875 25.152344 37.792969 C 22.722656 38.050781 20.890625 40.0625 20.890625 42.472656 C 20.890625 43.410156 21.191406 44.3125 21.789062 45.15625 C 22.945312 46.78125 22.109375 49.054688 20.175781 49.554688 C 17.226562 50.316406 15.171875 52.949219 15.171875 55.953125 C 15.171875 58.960938 17.226562 61.59375 20.175781 62.351562 C 22.109375 62.855469 22.945312 65.128906 21.789062 66.753906 C 21.191406 67.59375 20.890625 68.496094 20.890625 69.433594 C 20.890625 71.84375 22.722656 73.859375 25.148438 74.117188 C 27.472656 74.363281 28.535156 77.132812 26.964844 78.859375 C 25.503906 80.464844 24.703125 82.511719 24.703125 84.625 C 24.703125 89.335938 28.550781 93.167969 33.28125 93.167969 C 36.335938 93.167969 39.183594 91.53125 40.714844 88.894531 C 41.503906 87.53125 43.25 87.066406 44.621094 87.855469 C 45.988281 88.640625 46.453125 90.382812 45.664062 91.746094 C 44.863281 93.125 43.84375 94.34375 42.664062 95.363281 C 43.796875 97.484375 46.015625 98.863281 48.53125 98.863281 L 48.589844 98.863281 C 51.140625 98.835938 53.292969 96.511719 53.292969 93.785156 L 53.292969 83.335938 C 39.390625 81.90625 28.515625 70.171875 28.515625 55.953125 " fill-opacity="1" fill-rule="nonzero"/><path fill="#000000" d="M 92.132812 49.554688 C 90.199219 49.054688 89.363281 46.78125 90.519531 45.15625 C 91.113281 44.3125 91.417969 43.410156 91.417969 42.472656 C 91.417969 40.0625 89.585938 38.050781 87.15625 37.792969 C 84.832031 37.542969 83.773438 34.777344 85.34375 33.050781 C 86.800781 31.441406 87.605469 29.394531 87.605469 27.28125 C 87.605469 22.570312 83.757812 18.738281 79.027344 18.738281 C 75.972656 18.738281 73.125 20.378906 71.59375 23.015625 C 70.804688 24.375 69.054688 24.839844 67.6875 24.054688 C 66.320312 23.265625 65.851562 21.527344 66.644531 20.164062 C 67.445312 18.78125 68.464844 17.566406 69.644531 16.546875 C 68.511719 14.421875 66.292969 13.046875 63.777344 13.046875 L 63.710938 13.046875 C 61.164062 13.070312 59.011719 15.394531 59.011719 18.121094 L 59.011719 28.570312 C 72.914062 30 83.792969 41.734375 83.792969 55.953125 C 83.792969 70.171875 72.914062 81.90625 59.011719 83.335938 L 59.011719 93.785156 C 59.011719 96.511719 61.164062 98.839844 63.714844 98.863281 L 63.777344 98.863281 C 66.292969 98.863281 68.511719 97.484375 69.644531 95.363281 C 68.464844 94.34375 67.445312 93.125 66.644531 91.746094 C 65.851562 90.382812 66.320312 88.640625 67.6875 87.855469 C 69.054688 87.066406 70.804688 87.53125 71.59375 88.894531 C 73.125 91.53125 75.972656 93.167969 79.027344 93.167969 C 83.757812 93.167969 87.605469 89.335938 87.605469 84.625 C 87.605469 82.511719 86.800781 80.464844 85.339844 78.859375 C 83.773438 77.132812 84.832031 74.363281 87.15625 74.117188 C 89.585938 73.859375 91.417969 71.84375 91.417969 69.433594 C 91.417969 68.496094 91.113281 67.59375 90.519531 66.753906 C 89.363281 65.128906 90.199219 62.855469 92.132812 62.351562 C 95.078125 61.59375 97.136719 58.960938 97.136719 55.953125 C 97.136719 52.949219 95.078125 50.316406 92.132812 49.554688 " fill-opacity="1" fill-rule="nonzero"/><g clip-path="url(#acd5e2f24d)"><path fill="#000000" d="M 96.714844 66.574219 C 96.992188 67.503906 97.136719 68.464844 97.136719 69.433594 C 97.136719 73.265625 95.050781 76.640625 91.894531 78.449219 C 92.828125 80.367188 93.324219 82.472656 93.324219 84.625 C 93.324219 92.476562 86.910156 98.863281 79.027344 98.863281 C 77.511719 98.863281 76.03125 98.621094 74.625 98.167969 C 72.5 102.046875 68.410156 104.558594 63.777344 104.558594 L 63.648438 104.558594 C 60.703125 104.53125 58.042969 103.226562 56.152344 101.164062 C 54.265625 103.226562 51.601562 104.53125 48.652344 104.558594 L 48.53125 104.558594 C 43.894531 104.558594 39.804688 102.046875 37.679688 98.167969 C 36.277344 98.621094 34.792969 98.863281 33.28125 98.863281 C 25.398438 98.863281 18.984375 92.476562 18.984375 84.625 C 18.984375 82.472656 19.476562 80.367188 20.414062 78.449219 C 17.253906 76.640625 15.171875 73.265625 15.171875 69.433594 C 15.171875 68.464844 15.3125 67.503906 15.589844 66.574219 C 11.863281 64.410156 9.453125 60.402344 9.453125 55.953125 C 9.453125 51.507812 11.863281 47.5 15.589844 45.332031 C 15.3125 44.402344 15.171875 43.445312 15.171875 42.472656 C 15.171875 38.640625 17.253906 35.265625 20.414062 33.460938 C 19.476562 31.542969 18.984375 29.433594 18.984375 27.28125 C 18.984375 19.433594 25.398438 13.042969 33.28125 13.042969 C 34.792969 13.042969 36.277344 13.285156 37.679688 13.742188 C 39.804688 9.859375 43.894531 7.351562 48.53125 7.351562 L 48.640625 7.351562 C 51.59375 7.378906 54.261719 8.683594 56.152344 10.746094 C 58.042969 8.683594 60.707031 7.378906 63.65625 7.351562 L 63.777344 7.351562 C 68.410156 7.351562 72.5 9.859375 74.625 13.742188 C 76.03125 13.285156 77.511719 13.042969 79.027344 13.042969 C 86.910156 13.042969 93.324219 19.433594 93.324219 27.28125 C 93.324219 29.433594 92.828125 31.542969 91.894531 33.460938 C 95.050781 35.265625 97.136719 38.640625 97.136719 42.472656 C 97.136719 43.445312 96.992188 44.402344 96.714844 45.332031 C 100.445312 47.5 102.855469 51.507812 102.855469 55.953125 C 102.855469 60.402344 100.445312 64.410156 96.714844 66.574219 Z M 105.78125 55.953125 C 105.78125 51.289062 103.597656 46.886719 99.96875 44.023438 C 100.03125 43.507812 100.0625 42.992188 100.0625 42.472656 C 100.0625 38.585938 98.34375 34.921875 95.453125 32.417969 C 95.980469 30.757812 96.25 29.015625 96.25 27.285156 C 96.25 17.824219 88.523438 10.128906 79.027344 10.128906 C 77.988281 10.128906 76.957031 10.222656 75.9375 10.410156 C 73.078125 6.675781 68.582031 4.433594 63.632812 4.433594 C 63.628906 4.433594 63.628906 4.433594 63.628906 4.433594 C 60.953125 4.460938 58.339844 5.328125 56.152344 6.875 C 53.953125 5.328125 51.3125 4.460938 48.53125 4.433594 C 43.707031 4.433594 39.230469 6.675781 36.371094 10.410156 C 35.351562 10.222656 34.316406 10.128906 33.28125 10.128906 C 23.78125 10.128906 16.054688 17.824219 16.054688 27.285156 C 16.054688 29.015625 16.328125 30.757812 16.855469 32.417969 C 13.964844 34.921875 12.242188 38.585938 12.242188 42.472656 C 12.242188 42.992188 12.273438 43.507812 12.335938 44.023438 C 8.707031 46.886719 6.523438 51.289062 6.523438 55.953125 C 6.523438 60.621094 8.707031 65.023438 12.335938 67.886719 C 12.273438 68.398438 12.242188 68.914062 12.242188 69.433594 C 12.242188 73.320312 13.964844 76.988281 16.855469 79.488281 C 16.328125 81.152344 16.054688 82.890625 16.054688 84.625 C 16.054688 94.085938 23.78125 101.78125 33.28125 101.78125 C 34.320312 101.78125 35.351562 101.6875 36.371094 101.5 C 39.230469 105.230469 43.722656 107.472656 48.675781 107.472656 C 48.675781 107.472656 48.679688 107.472656 48.679688 107.472656 C 51.355469 107.449219 53.964844 106.582031 56.152344 105.035156 C 58.339844 106.582031 60.945312 107.449219 63.605469 107.472656 C 63.605469 107.472656 63.761719 107.476562 63.777344 107.476562 C 68.601562 107.476562 73.078125 105.234375 75.9375 101.5 C 76.957031 101.6875 77.988281 101.78125 79.027344 101.78125 C 88.523438 101.78125 96.25 94.085938 96.25 84.625 C 96.25 82.890625 95.980469 81.152344 95.453125 79.488281 C 98.34375 76.988281 100.0625 73.320312 100.0625 69.433594 C 100.0625 68.917969 100.03125 68.398438 99.96875 67.886719 C 103.597656 65.023438 105.78125 60.621094 105.78125 55.953125 " fill-opacity="1" fill-rule="nonzero"/></g><path fill="#000000" d="M 60.484375 55.734375 C 60.042969 55.992188 59.011719 56.726562 59.011719 57.9375 L 59.011719 59.75 C 59.011719 61.324219 57.734375 62.601562 56.152344 62.601562 C 54.574219 62.601562 53.292969 61.324219 53.292969 59.75 L 53.292969 57.9375 C 53.292969 55.054688 54.902344 52.390625 57.59375 50.820312 C 58.46875 50.308594 59.011719 49.367188 59.011719 48.359375 C 59.011719 46.789062 57.730469 45.511719 56.152344 45.511719 C 54.578125 45.511719 53.292969 46.789062 53.292969 48.359375 C 53.292969 49.933594 52.015625 51.207031 50.433594 51.207031 C 48.855469 51.207031 47.574219 49.933594 47.574219 48.359375 C 47.574219 43.648438 51.425781 39.816406 56.152344 39.816406 C 60.882812 39.816406 64.730469 43.648438 64.730469 48.359375 C 64.730469 51.382812 63.105469 54.207031 60.484375 55.734375 Z M 56.152344 73.992188 C 54.574219 73.992188 53.292969 72.714844 53.292969 71.144531 C 53.292969 69.570312 54.574219 68.296875 56.152344 68.296875 C 57.734375 68.296875 59.011719 69.570312 59.011719 71.144531 C 59.011719 72.714844 57.734375 73.992188 56.152344 73.992188 Z M 78.074219 55.953125 C 78.074219 43.914062 68.242188 34.121094 56.152344 34.121094 C 44.066406 34.121094 34.234375 43.914062 34.234375 55.953125 C 34.234375 67.996094 44.066406 77.789062 56.152344 77.789062 C 68.242188 77.789062 78.074219 67.996094 78.074219 55.953125 " fill-opacity="1" fill-rule="nonzero"/></svg>